<svg xmlns="http://www.w3.org/2000/svg" viewBox="0 0 49.66 33.84"><defs><style>.cls-1{fill:#324858;}.cls-2{fill:#fff;stroke:#324858;stroke-miterlimit:10;}</style></defs><title>Recurso 12</title><g id="Capa_2" data-name="Capa 2"><g id="Capa_1-2" data-name="Capa 1"><path class="cls-1" d="M31.63.28h-.11a2.49,2.49,0,0,0,0,5c4.24.4,6.65.17,1.62,1.06-5.31,1-10.93-.75-15.1-2.61A18.19,18.19,0,0,0,6.91,2.41l-.47.11C1.17,3.88-.09,7.49,0,11.3a3.33,3.33,0,0,0,1.89,3l26.83,3.88,13.74-4.09,6.05-3.87C47.69-.35,40.36-.5,31.63.28Z"/><path class="cls-1" d="M49.09,20.49s2.52,9-3.08,11.17C31.82,37.22,5.63,30.41,5.63,30.41a7.2,7.2,0,0,1-4.29-6C.94,21,2.42,20.28,2.42,20.28L5.8,21.72l7.78,2.7,6.83,1.1,6.4.39,6.46,0L37.74,25l5.74-1.08,3.79-.95Z"/><path class="cls-2" d="M10.33,22.62a7.75,7.75,0,0,1-3.8,1.44c-1.9,0-4.35-1-4.08-4.21.17-2.11.54-2.35,1.38-3.07"/><path class="cls-2" d="M47,16.63c1.39.57,2.47,3.77,2,5.49-.37,1.41-1.61,3.78-3.65,1.06"/><path class="cls-2" d="M16.9,24.18a5,5,0,0,1-3.18,1.27C12,25.36,9.85,24.18,10.31,21a4.05,4.05,0,0,1,.93-2.5"/><path class="cls-2" d="M18.26,20c-1.6,1.08-2.35,6.07,1.44,6.79s4.16-2.38,4.16-2.38"/><path class="cls-2" d="M24.07,21.34c-1.16,1.85.53,7.73,3.09,6.52,1.78-.85,2.83-1.74,2.73-5.09"/><path class="cls-2" d="M45.17,18.91c.56,4.25,0,6.78-1.57,6.91-1.42.12-3-1-3.64-5.73"/><path class="cls-2" d="M35.17,23.28c.06,1.23.88,3.77,3.19,3.59,1.52-.12,2.55-2.35,1.53-7.15"/><path class="cls-2" d="M30.21,21.14c-1,1.33.27,6.63,2.95,6.37,1.79-.16,2.22-2.49,1.92-6"/><path class="cls-2" d="M44.43,11.79c-.08-1,2-4.77,3.76-2.14,1.94,2.94.55,7-2.21,7.29"/><path class="cls-2" d="M11,17.9c-.93,1.05-2.8-.35-5-.81s-4.5-.45-3.87-3.58,5.28-3.26,5.28-3.26a5.28,5.28,0,0,1,4.87,3.42"/><path class="cls-2" d="M39,14.1c-.3-3.77,3.77-6.17,6-1.16,1.18,2.59.94,4.44.55,5.32-.8,1.82-3.74,1.84-5.86,1.21"/><path class="cls-2" d="M19.55,15.17s-1.32-2.59-3.66-2.62-4.16.85-4.71,3.15,0,3.53,1.27,3.46a6.26,6.26,0,0,1,3.82.75c1.48.83,3.38-.6,3.38-.6"/><path class="cls-2" d="M25.55,15.45s-1.06-2.73-3.32-2.77-2.75,2.57-2.89,3.55c-.26,1.85.41,5.75,3.42,5.54a3.75,3.75,0,0,0,2.85-2.22"/><path class="cls-2" d="M31.72,16.46s-.47-3.53-3.42-3.41-3.35,3.67-2.69,6.5,6.09,1.84,6.51.3"/><path class="cls-2" d="M32.31,20.28c1.37,1.83,7.22.7,7.39-1.11-.16-3.84-.69-8.23-4.5-8C30.77,11.52,31.53,19.23,32.31,20.28Z"/></g></g></svg>