<svg xmlns="http://www.w3.org/2000/svg" width="48.19" height="18.343" viewBox="0 0 48.19 18.343">
  <g id="Grupo_1528" data-name="Grupo 1528" transform="translate(0.492 0.574)">
    <path id="Trazado_2450" data-name="Trazado 2450" d="M282.4,438.638c1.346,17.949-16.979,13.945-23.35,13.876-.079,0-.364,0-.442,0-6.371.07-23.787,4.282-23.35-13.876l6.829,3.008h33.465Z" transform="translate(-235.249 -435.215)" fill="#324858"/>
    <path id="Trazado_2452" data-name="Trazado 2452" d="M259.871,439.605" transform="translate(-236.292 -435.256)" fill="#fff" stroke="#324858" stroke-linecap="round" stroke-linejoin="round" stroke-width="1"/>
    <path id="Trazado_2454" data-name="Trazado 2454" d="M236.8,440.273s-1.539,0-1.539-2.183c0-1.792.581-2.545,1.827-2.946a2.058,2.058,0,0,1,2.286.852" transform="translate(-235.25 -435.064)" fill="#fff" stroke="#324858" stroke-linecap="round" stroke-linejoin="round" stroke-width="1"/>
    <path id="Trazado_2455" data-name="Trazado 2455" d="M236.87,439.645" transform="translate(-235.318 -435.258)" fill="#fff" stroke="#324858" stroke-linecap="round" stroke-linejoin="round" stroke-width="1"/>
    <path id="Trazado_2456" data-name="Trazado 2456" d="M238.516,441.8s-1.759.3-1.646-2.305,1.425-3.254,2.324-3.409a1.72,1.72,0,0,1,1.969.963" transform="translate(-235.317 -435.105)" fill="#fff" stroke="#324858" stroke-linecap="round" stroke-linejoin="round" stroke-width="1"/>
    <path id="Trazado_2457" data-name="Trazado 2457" d="M240.522,443.749s-2.251.306-2.038-4.08a2.347,2.347,0,0,1,.913-1.749l.269-.2a2.306,2.306,0,0,1,3.284.476c.054.077.08.124.08.124" transform="translate(-235.385 -435.156)" fill="#fff" stroke="#324858" stroke-linecap="round" stroke-linejoin="round" stroke-width="1"/>
    <path id="Trazado_2458" data-name="Trazado 2458" d="M245.109,439.552a2.429,2.429,0,0,0-3.358-.877c-2.368,1.043-1.278,7.435.311,7.113a3.064,3.064,0,0,0,2.206-1.529" transform="translate(-235.466 -435.203)" fill="#fff" stroke="#324858" stroke-linecap="round" stroke-linejoin="round" stroke-width="1"/>
    <path id="Trazado_2459" data-name="Trazado 2459" d="M249.093,440.891s-1.95-2.929-3.981-1.175c-1.8,1.549-.4,9.491,2.028,8.145a4.205,4.205,0,0,0,2.235-2.636" transform="translate(-235.632 -435.237)" fill="#fff" stroke="#324858" stroke-linecap="round" stroke-linejoin="round" stroke-width="1"/>
    <path id="Trazado_2460" data-name="Trazado 2460" d="M254.3,441.562a.991.991,0,0,0-.679-1.109,11.549,11.549,0,0,0-3.716-.021c-.487.071-.713.558-.713,1.09,0,3.479.677,4.893,1.328,5.84a1.85,1.85,0,0,0,2.922.17,5.887,5.887,0,0,0,1.065-2.985" transform="translate(-235.84 -435.285)" fill="#fff" stroke="#324858" stroke-linecap="round" stroke-linejoin="round" stroke-width="1"/>
    <path id="Trazado_2461" data-name="Trazado 2461" d="M255.241,440.432c-.487.071-.713.558-.712,1.09,0,3.479.68,5.3,1.331,6.248a1.432,1.432,0,0,0,2.361,0c.638-.943,1.318-2.752,1.415-6.2a.99.99,0,0,0-.679-1.109A11.549,11.549,0,0,0,255.241,440.432Z" transform="translate(-236.065 -435.285)" fill="#fff" stroke="#324858" stroke-linecap="round" stroke-linejoin="round" stroke-width="1"/>
    <path id="Trazado_2468" data-name="Trazado 2468" d="M282.813,440.273s1.539,0,1.539-2.183c0-1.792-.581-2.545-1.827-2.946a2.058,2.058,0,0,0-2.286.852" transform="translate(-237.154 -435.064)" fill="#fff" stroke="#324858" stroke-linecap="round" stroke-linejoin="round" stroke-width="1"/>
    <path id="Trazado_2469" data-name="Trazado 2469" d="M282.922,439.645" transform="translate(-237.268 -435.258)" fill="#fff" stroke="#324858" stroke-linecap="round" stroke-linejoin="round" stroke-width="1"/>
    <path id="Trazado_2470" data-name="Trazado 2470" d="M281.086,441.8s1.759.3,1.646-2.305-1.425-3.254-2.323-3.409a1.721,1.721,0,0,0-1.97.963" transform="translate(-237.078 -435.105)" fill="#fff" stroke="#324858" stroke-linecap="round" stroke-linejoin="round" stroke-width="1"/>
    <path id="Trazado_2471" data-name="Trazado 2471" d="M279.068,443.749s2.251.306,2.038-4.08a2.346,2.346,0,0,0-.913-1.749l-.269-.2a2.306,2.306,0,0,0-3.284.476c-.054.077-.08.124-.08.124" transform="translate(-236.998 -435.156)" fill="#fff" stroke="#324858" stroke-linecap="round" stroke-linejoin="round" stroke-width="1"/>
    <path id="Trazado_2472" data-name="Trazado 2472" d="M274.474,439.552a2.429,2.429,0,0,1,3.358-.877c2.368,1.043,1.278,7.435-.311,7.113a3.064,3.064,0,0,1-2.206-1.529" transform="translate(-236.91 -435.203)" fill="#fff" stroke="#324858" stroke-linecap="round" stroke-linejoin="round" stroke-width="1"/>
    <path id="Trazado_2473" data-name="Trazado 2473" d="M270.475,440.891s1.95-2.929,3.981-1.175c1.8,1.549.4,9.491-2.028,8.145a4.205,4.205,0,0,1-2.235-2.636" transform="translate(-236.729 -435.237)" fill="#fff" stroke="#324858" stroke-linecap="round" stroke-linejoin="round" stroke-width="1"/>
    <path id="Trazado_2474" data-name="Trazado 2474" d="M265.256,441.562a.991.991,0,0,1,.679-1.109,11.549,11.549,0,0,1,3.716-.021c.487.071.713.558.713,1.09,0,3.479-.677,4.893-1.328,5.84a1.85,1.85,0,0,1-2.922.17,5.886,5.886,0,0,1-1.065-2.985" transform="translate(-236.511 -435.285)" fill="#fff" stroke="#324858" stroke-linecap="round" stroke-linejoin="round" stroke-width="1"/>
    <path id="Trazado_2475" data-name="Trazado 2475" d="M264.326,440.432c.487.071.714.558.713,1.09,0,3.479-.68,5.3-1.331,6.248a1.432,1.432,0,0,1-2.361,0c-.638-.943-1.318-2.752-1.415-6.2a.991.991,0,0,1,.679-1.109A11.549,11.549,0,0,1,264.326,440.432Z" transform="translate(-236.294 -435.285)" fill="#fff" stroke="#324858" stroke-linecap="round" stroke-linejoin="round" stroke-width="1"/>
  </g>
</svg>
