<svg xmlns="http://www.w3.org/2000/svg" width="44.624" height="34.541" viewBox="0 0 44.624 34.541">
  <g id="Grupo_1536" data-name="Grupo 1536" transform="translate(0 0)">
    <path id="Trazado_2536" data-name="Trazado 2536" d="M437.112,372.36c3.695-4.416,6.574-10.927,6.563-20.5a6.684,6.684,0,0,0-6.292-6.657,6.558,6.558,0,0,0-6.949,6.468,21.473,21.473,0,0,1-2.627,11.052,7.479,7.479,0,0,1-12.892-.009,21.413,21.413,0,0,1-2.621-10.915,6.659,6.659,0,0,0-6.413-6.6,6.555,6.555,0,0,0-6.829,6.473c0,10.208,3.137,16.945,7.06,21.38C414.3,382.314,429.186,381.835,437.112,372.36Z" transform="translate(-399.052 -345.198)" fill="#037cdb" opacity="0.3"/>
    <path id="Trazado_2537" data-name="Trazado 2537" d="M422.849,375.613s-.741-.742-1.579.258-2.095,3.223-1.547,4.254,2.617,1.136,3.086.805.782-.838.782-2.482A4.343,4.343,0,0,0,422.849,375.613Z" transform="translate(-401.936 -349.431)" fill="#fff" stroke="#324858" stroke-linecap="round" stroke-linejoin="round" stroke-width="1"/>
    <path id="Trazado_2538" data-name="Trazado 2538" d="M417.251,374.38s-1.579-.258-3,2.224,2.031,3.932,3.277,2.482C418.066,378.461,418.959,374.734,417.251,374.38Z" transform="translate(-401.139 -349.294)" fill="#fff" stroke="#324858" stroke-linecap="round" stroke-linejoin="round" stroke-width="1"/>
    <path id="Trazado_2539" data-name="Trazado 2539" d="M413.544,373.125a1.2,1.2,0,0,0-.979-.98,4.786,4.786,0,0,0-3.952.516c-1.87,1.45,2.12,5.44,3.505,4.344A4.377,4.377,0,0,0,413.544,373.125Z" transform="translate(-400.326 -348.954)" fill="#fff" stroke="#324858" stroke-linecap="round" stroke-linejoin="round" stroke-width="1"/>
    <path id="Trazado_2540" data-name="Trazado 2540" d="M426.513,375.613s.741-.742,1.579.258,2.095,3.223,1.547,4.254-2.617,1.136-3.086.805-.781-.838-.781-2.482A4.345,4.345,0,0,1,426.513,375.613Z" transform="translate(-402.804 -349.431)" fill="#fff" stroke="#324858" stroke-linecap="round" stroke-linejoin="round" stroke-width="1"/>
    <path id="Trazado_2541" data-name="Trazado 2541" d="M432.058,374.38s1.579-.258,3,2.224-2.03,3.932-3.277,2.482C431.242,378.461,430.349,374.734,432.058,374.38Z" transform="translate(-403.546 -349.294)" fill="#fff" stroke="#324858" stroke-linecap="round" stroke-linejoin="round" stroke-width="1"/>
    <path id="Trazado_2542" data-name="Trazado 2542" d="M435.58,373.125a1.2,1.2,0,0,1,.979-.98,4.786,4.786,0,0,1,3.952.516c1.87,1.45-2.12,5.44-3.505,4.344A4.377,4.377,0,0,1,435.58,373.125Z" transform="translate(-404.175 -348.954)" fill="#fff" stroke="#324858" stroke-linecap="round" stroke-linejoin="round" stroke-width="1"/>
    <path id="Trazado_2543" data-name="Trazado 2543" d="M440.8,361.145a3.964,3.964,0,0,1,2.466.725c1.131.841.145,1.827.435,2.9s.754,3.916-1.015,4.989-3.364.871-4.09,0a3.933,3.933,0,0,1-.435-3.771c.522-1.363-.319-2.495.435-3.8A2.187,2.187,0,0,1,440.8,361.145Z" transform="translate(-404.503 -347.434)" fill="#fff" stroke="#324858" stroke-linecap="round" stroke-linejoin="round" stroke-width="1"/>
    <path id="Trazado_2544" data-name="Trazado 2544" d="M442.181,349.861a4.756,4.756,0,0,1,2.519.794,3.7,3.7,0,0,1,1.4,2.575c.274,1.013-.411,4.465-2.081,5.478a3.477,3.477,0,0,1-4.24-.242,3.954,3.954,0,0,1-.576-3.675c.493-1.288-.142-2.465.57-3.7A2.994,2.994,0,0,1,442.181,349.861Z" transform="translate(-404.658 -345.853)" fill="#fff" stroke="#324858" stroke-linecap="round" stroke-linejoin="round" stroke-width="1"/>
    <path id="Trazado_2545" data-name="Trazado 2545" d="M441.423,363.611a10.983,10.983,0,0,1,0,4.845" transform="translate(-405.001 -347.783)" fill="none" stroke="#324858" stroke-linecap="round" stroke-linejoin="round" stroke-width="0.5"/>
    <path id="Trazado_2546" data-name="Trazado 2546" d="M443.454,364.972a6.261,6.261,0,0,1-1.742.264" transform="translate(-405.042 -347.974)" fill="none" stroke="#324858" stroke-linecap="round" stroke-linejoin="round" stroke-width="0.5"/>
    <path id="Trazado_2547" data-name="Trazado 2547" d="M439.712,366.022a6.293,6.293,0,0,0,1.76-.066" transform="translate(-404.761 -348.113)" fill="none" stroke="#324858" stroke-linecap="round" stroke-linejoin="round" stroke-width="0.5"/>
    <path id="Trazado_2548" data-name="Trazado 2548" d="M442.936,352.761a18.54,18.54,0,0,1-.328,5.177" transform="translate(-405.167 -346.26)" fill="none" stroke="#324858" stroke-linecap="round" stroke-linejoin="round" stroke-width="0.5"/>
    <path id="Trazado_2549" data-name="Trazado 2549" d="M440.51,355.381a11.071,11.071,0,0,1,3.988.328" transform="translate(-404.873 -346.62)" fill="none" stroke="#324858" stroke-linecap="round" stroke-linejoin="round" stroke-width="0.5"/>
    <path id="Trazado_2550" data-name="Trazado 2550" d="M408.226,361.145a3.962,3.962,0,0,0-2.465.725c-1.131.841-.145,1.827-.435,2.9s-.755,3.916,1.015,4.989,3.364.871,4.09,0a3.937,3.937,0,0,0,.435-3.771c-.523-1.363.319-2.495-.435-3.8A2.189,2.189,0,0,0,408.226,361.145Z" transform="translate(-399.894 -347.434)" fill="#fff" stroke="#324858" stroke-linecap="round" stroke-linejoin="round" stroke-width="1"/>
    <path id="Trazado_2551" data-name="Trazado 2551" d="M406.666,349.861a4.759,4.759,0,0,0-2.52.794,3.711,3.711,0,0,0-1.4,2.575c-.274,1.013.411,4.465,2.082,5.478a3.477,3.477,0,0,0,4.24-.242,3.954,3.954,0,0,0,.575-3.675c-.493-1.288.143-2.465-.57-3.7A2.991,2.991,0,0,0,406.666,349.861Z" transform="translate(-399.563 -345.853)" fill="#fff" stroke="#324858" stroke-linecap="round" stroke-linejoin="round" stroke-width="1"/>
    <path id="Trazado_2552" data-name="Trazado 2552" d="M408.548,363.611a10.984,10.984,0,0,0,0,4.845" transform="translate(-400.345 -347.783)" fill="none" stroke="#324858" stroke-linecap="round" stroke-linejoin="round" stroke-width="0.5"/>
    <path id="Trazado_2553" data-name="Trazado 2553" d="M406.28,364.972a6.26,6.26,0,0,0,1.742.264" transform="translate(-400.067 -347.974)" fill="none" stroke="#324858" stroke-linecap="round" stroke-linejoin="round" stroke-width="0.5"/>
    <path id="Trazado_2554" data-name="Trazado 2554" d="M410.019,366.022a6.293,6.293,0,0,1-1.76-.066" transform="translate(-400.345 -348.113)" fill="none" stroke="#324858" stroke-linecap="round" stroke-linejoin="round" stroke-width="0.5"/>
    <path id="Trazado_2555" data-name="Trazado 2555" d="M407.019,352.761a18.519,18.519,0,0,0,.329,5.177" transform="translate(-400.163 -346.26)" fill="none" stroke="#324858" stroke-linecap="round" stroke-linejoin="round" stroke-width="0.5"/>
    <path id="Trazado_2556" data-name="Trazado 2556" d="M408.951,355.381a12.334,12.334,0,0,0-4.213.328" transform="translate(-399.85 -346.62)" fill="none" stroke="#324858" stroke-linecap="round" stroke-linejoin="round" stroke-width="0.5"/>
  </g>
</svg>
