<svg xmlns="http://www.w3.org/2000/svg" width="45.649" height="33.655" viewBox="0 0 45.649 33.655">
  <g id="Grupo_1534" data-name="Grupo 1534" transform="translate(0 0)">
    <path id="Trazado_2499" data-name="Trazado 2499" d="M66.485,355.087c-3.779,4.3-6.725,10.647-6.713,19.972a6.658,6.658,0,0,0,6.437,6.486,6.581,6.581,0,0,0,7.11-6.3A20.145,20.145,0,0,1,76,364.473a7.851,7.851,0,0,1,13.19.009,20.087,20.087,0,0,1,2.681,10.636,6.644,6.644,0,0,0,6.56,6.431,6.571,6.571,0,0,0,6.986-6.307c0-9.946-3.21-16.51-7.221-20.831C89.823,345.389,74.594,345.855,66.485,355.087Z" transform="translate(-59.772 -347.897)" fill="#037cdb" opacity="0.3"/>
    <g id="Grupo_1522" data-name="Grupo 1522" transform="translate(2.876 4.108)">
      <path id="Trazado_2500" data-name="Trazado 2500" d="M84.024,358.566c1.3-.328,1.546-3.428,1.1-5.066-.492-1.793-5.432-.346-4.991,1.338C80.462,356.11,82.521,358.943,84.024,358.566Z" transform="translate(-65.502 -352.676)" fill="#fff" stroke="#324858" stroke-linecap="round" stroke-linejoin="round" stroke-width="1"/>
      <path id="Trazado_2501" data-name="Trazado 2501" d="M78.619,360.338c.921-.527.447-3.217-.243-4.528-.756-1.435-4.209.738-3.516,2.09C75.384,358.921,77.555,360.946,78.619,360.338Z" transform="translate(-64.753 -353.05)" fill="#fff" stroke="#324858" stroke-linecap="round" stroke-linejoin="round" stroke-width="1"/>
      <path id="Trazado_2502" data-name="Trazado 2502" d="M75.284,363.78c.679-1.045-.7-3.362-2.129-4.36-.8-.558-1.638.532-2.6,1.064-1.03.57-.628,2.55.083,3.059C71.734,364.329,74.5,364.986,75.284,363.78Z" transform="translate(-64.074 -353.601)" fill="#fff" stroke="#324858" stroke-linecap="round" stroke-linejoin="round" stroke-width="1"/>
      <path id="Trazado_2503" data-name="Trazado 2503" d="M72.578,369.687c.65-1.72-.838-4.027-2.432-4.726-1.659-.728-2.733.4-3.531,1.157-1.022.968.3,3.719,1.055,4.156C68.837,370.948,72.068,371.033,72.578,369.687Z" transform="translate(-63.556 -354.368)" fill="#fff" stroke="#324858" stroke-linecap="round" stroke-linejoin="round" stroke-width="1"/>
      <path id="Trazado_2504" data-name="Trazado 2504" d="M68.28,371.672a14.307,14.307,0,0,0-2.477-.37,3.342,3.342,0,0,0-2.684,3.146,14.179,14.179,0,0,0,.451,3.22,3.69,3.69,0,0,0,3.052,2.3l.067,0a4.423,4.423,0,0,0,4.131-2.368,3.516,3.516,0,0,0,.238-.561l.107-.341a4.107,4.107,0,0,0,.166-1.822,2.045,2.045,0,0,0-.241-.763C70.712,373.514,69.278,371.876,68.28,371.672Z" transform="translate(-63.117 -355.29)" fill="#fff" stroke="#324858" stroke-linecap="round" stroke-linejoin="round" stroke-width="1"/>
      <path id="Trazado_2505" data-name="Trazado 2505" d="M88.688,358.566c-1.3-.328-1.546-3.428-1.1-5.066.492-1.793,5.432-.346,4.992,1.338C92.249,356.11,90.191,358.943,88.688,358.566Z" transform="translate(-66.524 -352.676)" fill="#fff" stroke="#324858" stroke-linecap="round" stroke-linejoin="round" stroke-width="1"/>
      <path id="Trazado_2506" data-name="Trazado 2506" d="M94.233,360.338c-.921-.527-.447-3.217.243-4.528.756-1.435,4.21.738,3.517,2.09C97.469,358.921,95.3,360.946,94.233,360.338Z" transform="translate(-67.414 -353.05)" fill="#fff" stroke="#324858" stroke-linecap="round" stroke-linejoin="round" stroke-width="1"/>
      <path id="Trazado_2507" data-name="Trazado 2507" d="M97.379,363.78c-.68-1.045.7-3.362,2.129-4.36.8-.558,1.637.532,2.6,1.064,1.03.57.628,2.55-.083,3.059C100.929,364.329,98.164,364.986,97.379,363.78Z" transform="translate(-67.903 -353.601)" fill="#fff" stroke="#324858" stroke-linecap="round" stroke-linejoin="round" stroke-width="1"/>
      <path id="Trazado_2508" data-name="Trazado 2508" d="M99.927,369.687c-.651-1.72.838-4.027,2.431-4.726,1.659-.728,2.734.4,3.531,1.157,1.023.968-.3,3.719-1.054,4.156C103.668,370.948,100.436,371.033,99.927,369.687Z" transform="translate(-68.264 -354.368)" fill="#fff" stroke="#324858" stroke-linecap="round" stroke-linejoin="round" stroke-width="1"/>
      <path id="Trazado_2509" data-name="Trazado 2509" d="M103.938,371.672a14.308,14.308,0,0,1,2.476-.37,3.342,3.342,0,0,1,2.683,3.146,14.155,14.155,0,0,1-.45,3.22,3.692,3.692,0,0,1-3.052,2.3l-.066,0A4.425,4.425,0,0,1,101.4,377.6a3.591,3.591,0,0,1-.237-.561l-.107-.341a4.12,4.12,0,0,1-.167-1.822,2.046,2.046,0,0,1,.242-.763C101.5,373.514,102.94,371.876,103.938,371.672Z" transform="translate(-68.415 -355.29)" fill="#fff" stroke="#324858" stroke-linecap="round" stroke-linejoin="round" stroke-width="1"/>
    </g>
    <path id="Trazado_2510" data-name="Trazado 2510" d="M67.73,373.006a2.79,2.79,0,0,1-2.786,1.963" transform="translate(-60.498 -351.422)" fill="none" stroke="#324858" stroke-linecap="round" stroke-linejoin="round" stroke-width="0.5"/>
    <path id="Trazado_2511" data-name="Trazado 2511" d="M67.269,379.212a2.791,2.791,0,0,1,2.786-1.964" transform="translate(-60.825 -352.018)" fill="none" stroke="#324858" stroke-linecap="round" stroke-linejoin="round" stroke-width="0.5"/>
    <path id="Trazado_2512" data-name="Trazado 2512" d="M64.944,377.706s3.052-2.634,4.785-2.079" transform="translate(-60.498 -351.779)" fill="none" stroke="#324858" stroke-linecap="round" stroke-linejoin="round" stroke-width="0.5"/>
    <path id="Trazado_2513" data-name="Trazado 2513" d="M68.447,368.622s1.627-1.4,2.551-1.109" transform="translate(-60.99 -350.645)" fill="none" stroke="#324858" stroke-linecap="round" stroke-linejoin="round" stroke-width="0.5"/>
    <path id="Trazado_2514" data-name="Trazado 2514" d="M105.41,373.006a2.791,2.791,0,0,0,2.786,1.963" transform="translate(-66.18 -351.422)" fill="none" stroke="#324858" stroke-linecap="round" stroke-linejoin="round" stroke-width="0.5"/>
    <path id="Trazado_2515" data-name="Trazado 2515" d="M105.872,379.212a2.792,2.792,0,0,0-2.786-1.964" transform="translate(-65.853 -352.018)" fill="none" stroke="#324858" stroke-linecap="round" stroke-linejoin="round" stroke-width="0.5"/>
    <path id="Trazado_2516" data-name="Trazado 2516" d="M107.87,377.706s-3.052-2.634-4.784-2.079" transform="translate(-65.853 -351.779)" fill="none" stroke="#324858" stroke-linecap="round" stroke-linejoin="round" stroke-width="0.5"/>
    <path id="Trazado_2517" data-name="Trazado 2517" d="M104.731,368.622s-1.627-1.4-2.551-1.109" transform="translate(-65.726 -350.645)" fill="none" stroke="#324858" stroke-linecap="round" stroke-linejoin="round" stroke-width="0.5"/>
  </g>
</svg>
