<svg xmlns="http://www.w3.org/2000/svg" viewBox="0 0 51.79 34.83"><defs><style>.cls-1{fill:#037cdb;opacity:0.3;}.cls-2{fill:#fff;stroke:#324858;stroke-linecap:round;stroke-linejoin:round;}</style></defs><title>Recurso 17</title><g id="Capa_2" data-name="Capa 2"><g id="Capa_1-2" data-name="Capa 1"><path class="cls-1" d="M50.48,19.85C51.81,38.59,32.75,34.41,26.1,34.34h-.46C19,34.41.8,38.81,1.26,19.85L8.39,23H43.33Z"/><path class="cls-1" d="M50.48,8.8C51.3-3.83,32.75.83,26.1.9a.85.85,0,0,0-.23,0,.91.91,0,0,0-.23,0C19,.83.44-3.83,1.26,8.8L3.4,11.86h45Z"/><path class="cls-2" d="M2.61,8.87S.47,8.18.5,11.41s2.11,2.52,2.11,2.52"/><path class="cls-2" d="M2.86,21.72s-1.6,0-1.6-2.28c0-1.87.6-2.66,1.9-3.08a2.15,2.15,0,0,1,2.39.89"/><path class="cls-2" d="M4.59,23.27s-1.84.31-1.72-2.41,1.49-3.4,2.42-3.56a1.8,1.8,0,0,1,2.06,1"/><path class="cls-2" d="M6.61,25.25S4.26,25.57,4.48,21a2.42,2.42,0,0,1,1-1.82L5.72,19a2.41,2.41,0,0,1,3.43.5l.08.13"/><path class="cls-2" d="M11.32,20.82a2.55,2.55,0,0,0-3.51-.92c-2.47,1.09-1.33,7.77.32,7.43a3.23,3.23,0,0,0,2.31-1.6"/><path class="cls-2" d="M15.3,22.18s-2-3.06-4.15-1.23c-1.88,1.62-.43,9.92,2.11,8.51a4.39,4.39,0,0,0,2.34-2.75"/><path class="cls-2" d="M20.52,22.83a1,1,0,0,0-.7-1.16,12,12,0,0,0-3.88,0c-.51.08-.75.58-.75,1.14,0,3.63.71,5.11,1.39,6.1a1.93,1.93,0,0,0,3.05.18A6.23,6.23,0,0,0,20.74,26"/><path class="cls-2" d="M21.27,21.65c-.51.08-.75.58-.74,1.14,0,3.63.71,5.53,1.39,6.52a1.49,1.49,0,0,0,2.46,0c.67-1,1.38-2.87,1.48-6.48a1,1,0,0,0-.71-1.16A12,12,0,0,0,21.27,21.65Z"/><path class="cls-2" d="M4.76,8.78s-2-1-2.31.46-.39,5.12.93,5.65a2,2,0,0,0,1.38-.06"/><path class="cls-2" d="M7.43,8.56s-1.76-1.22-2.55,0-.76,6.42.43,7c.71.38,1.94-.48,1.94-.48"/><path class="cls-2" d="M11.56,9.92a3.58,3.58,0,0,0-2-2.12A1.82,1.82,0,0,0,7.15,9.22c-.48,1.87-.51,5.25.69,7.32,1.06,1.82,3.34-.35,3.34-.35"/><path class="cls-2" d="M17.36,11c-.92-3.1-3.27-4.55-4.74-3.21s-1.7,5.69-1.5,7.69a2.63,2.63,0,0,0,1.09,1.75c1.41,1.18,4.46.06,4.46.06"/><path class="cls-2" d="M21.24,19.31a9.4,9.4,0,0,0,3.4-.61,2.11,2.11,0,0,0,1.25-2c0-10.53-4.47-10.16-4.47-10.16s-4.43-.49-4.75,10a2.11,2.11,0,0,0,1.2,2,9.33,9.33,0,0,0,3.37.7"/><path class="cls-2" d="M49.18,8.87s2.14-.69,2.11,2.54-2.11,2.52-2.11,2.52"/><path class="cls-2" d="M48.92,21.72s1.61,0,1.61-2.28c0-1.87-.61-2.66-1.91-3.08a2.14,2.14,0,0,0-2.38.89"/><path class="cls-2" d="M47.2,23.27s1.84.31,1.72-2.41-1.49-3.4-2.43-3.56a1.79,1.79,0,0,0-2.05,1"/><path class="cls-2" d="M45.18,25.25s2.35.32,2.12-4.26a2.41,2.41,0,0,0-.95-1.82L46.07,19a2.41,2.41,0,0,0-3.43.5l-.08.13"/><path class="cls-2" d="M40.47,20.82A2.54,2.54,0,0,1,44,19.9c2.47,1.09,1.33,7.77-.33,7.43a3.22,3.22,0,0,1-2.3-1.6"/><path class="cls-2" d="M36.48,22.18s2-3.06,4.16-1.23c1.88,1.62.42,9.92-2.12,8.51a4.39,4.39,0,0,1-2.33-2.75"/><path class="cls-2" d="M31.26,22.83A1,1,0,0,1,32,21.67a12,12,0,0,1,3.88,0c.51.08.75.58.75,1.14,0,3.63-.71,5.11-1.39,6.1a1.93,1.93,0,0,1-3.05.18A6.14,6.14,0,0,1,31.05,26"/><path class="cls-2" d="M30.52,21.65c.51.08.74.58.74,1.14,0,3.63-.71,5.53-1.39,6.52a1.49,1.49,0,0,1-2.46,0c-.67-1-1.38-2.87-1.48-6.48a1,1,0,0,1,.71-1.16A12,12,0,0,1,30.52,21.65Z"/><path class="cls-2" d="M47,8.78s2-1,2.31.46.4,5.12-.92,5.65A2,2,0,0,1,47,14.83"/><path class="cls-2" d="M44.36,8.56s1.76-1.22,2.55,0,.76,6.42-.44,7c-.7.38-1.93-.48-1.93-.48"/><path class="cls-2" d="M40.23,9.92a3.55,3.55,0,0,1,2-2.12,1.82,1.82,0,0,1,2.37,1.42c.48,1.87.51,5.25-.69,7.32-1.06,1.82-3.34-.35-3.34-.35"/><path class="cls-2" d="M34.43,11c.92-3.1,3.27-4.55,4.73-3.21s1.71,5.69,1.5,7.69a2.61,2.61,0,0,1-1.08,1.75c-1.41,1.18-4.46.06-4.46.06"/><path class="cls-2" d="M30.54,19.31a9.34,9.34,0,0,1-3.39-.61,2.14,2.14,0,0,1-1.26-2c0-10.53,4.48-10.16,4.48-10.16s4.43-.49,4.75,10a2.13,2.13,0,0,1-1.2,2,9.37,9.37,0,0,1-3.38.7"/></g></g></svg>