<svg xmlns="http://www.w3.org/2000/svg" viewBox="0 0 51.91 40.18"><defs><style>.cls-1{fill:#324858;}.cls-2{fill:#fff;}.cls-2,.cls-3{stroke:#324858;stroke-linecap:round;stroke-linejoin:round;}.cls-3{fill:none;stroke-width:0.5px;}</style></defs><title>Recurso 15</title><g id="Capa_2" data-name="Capa 2"><g id="Capa_1-2" data-name="Capa 1"><path class="cls-1" d="M44.28,31.6c4.29-5.14,7.64-12.71,7.63-23.85A7.76,7.76,0,0,0,44.59,0a7.62,7.62,0,0,0-8.08,7.52,25,25,0,0,1-3.06,12.86,8.7,8.7,0,0,1-15,0,24.92,24.92,0,0,1-3-12.7A7.76,7.76,0,0,0,7.94,0,7.62,7.62,0,0,0,0,7.53C0,19.41,3.65,27.25,8.21,32.41,17.74,43.18,35.06,42.62,44.28,31.6Z"/><path class="cls-2" d="M24.33,30.46s-.86-.86-1.84.3-2.43,3.75-1.8,4.95,3,1.32,3.59.93.91-1,.91-2.88A5,5,0,0,0,24.33,30.46Z"/><path class="cls-2" d="M18.74,29.18s-1.83-.3-3.48,2.59,2.36,4.57,3.81,2.89C19.69,33.93,20.73,29.6,18.74,29.18Z"/><path class="cls-2" d="M15.38,28.12A1.4,1.4,0,0,0,14.24,27c-1.18-.23-3.1-.56-4.6.6-2.17,1.69,2.47,6.33,4.08,5.05A5.1,5.1,0,0,0,15.38,28.12Z"/><path class="cls-2" d="M27.58,30.46s.86-.86,1.84.3,2.44,3.75,1.8,4.95-3,1.32-3.59.93-.91-1-.91-2.88A5.07,5.07,0,0,1,27.58,30.46Z"/><path class="cls-2" d="M33.17,29.18s1.84-.3,3.49,2.59-2.37,4.57-3.82,2.89C32.22,33.93,31.18,29.6,33.17,29.18Z"/><path class="cls-2" d="M36.53,28.12A1.42,1.42,0,0,1,37.67,27c1.18-.23,3.1-.56,4.6.6,2.18,1.69-2.46,6.33-4.08,5.05A5.13,5.13,0,0,1,36.53,28.12Z"/><path class="cls-2" d="M42.22,16a4.59,4.59,0,0,1,2.87.84c1.32,1,.17,2.13.51,3.38s.87,4.55-1.19,5.8-3.91,1-4.75,0a4.54,4.54,0,0,1-.51-4.38c.61-1.59-.37-2.91.51-4.43A2.55,2.55,0,0,1,42.22,16Z"/><path class="cls-2" d="M43.65,4.66a5.5,5.5,0,0,1,2.93.93c1.25.92,1.31,1.81,1.63,3s-.48,5.2-2.42,6.38-4.14.67-4.94-.29a4.61,4.61,0,0,1-.67-4.27c.58-1.5-.16-2.87.67-4.3A3.47,3.47,0,0,1,43.65,4.66Z"/><path class="cls-3" d="M42.37,18.41a12.75,12.75,0,0,1,0,5.64"/><path class="cls-3" d="M44.69,19.77a7.12,7.12,0,0,1-2,.31"/><path class="cls-3" d="M40.66,20.83a7.36,7.36,0,0,0,2.05-.07"/><path class="cls-3" d="M43.94,7.56a21.55,21.55,0,0,1-.38,6"/><path class="cls-3" d="M41.46,10.19a12.83,12.83,0,0,1,4.64.38"/><path class="cls-2" d="M9.69,16a4.59,4.59,0,0,0-2.87.84c-1.31,1-.16,2.13-.5,3.38S5.44,24.72,7.5,26s3.91,1,4.76,0a4.57,4.57,0,0,0,.5-4.38c-.6-1.59.38-2.91-.5-4.43A2.56,2.56,0,0,0,9.69,16Z"/><path class="cls-2" d="M8.26,4.66a5.5,5.5,0,0,0-2.93.93C4.09,6.51,4,7.4,3.71,8.58s.47,5.2,2.42,6.38,4.13.67,4.93-.29a4.59,4.59,0,0,0,.67-4.27c-.57-1.5.17-2.87-.66-4.3A3.48,3.48,0,0,0,8.26,4.66Z"/><path class="cls-3" d="M9.54,18.41a12.92,12.92,0,0,0,0,5.64"/><path class="cls-3" d="M7.23,19.77a7,7,0,0,0,2,.31"/><path class="cls-3" d="M11.25,20.83a7.29,7.29,0,0,1-2-.07"/><path class="cls-3" d="M8,7.56a21.55,21.55,0,0,0,.38,6"/><path class="cls-3" d="M10.59,10.19a14.29,14.29,0,0,0-4.9.38"/></g></g></svg>