<svg xmlns="http://www.w3.org/2000/svg" viewBox="0 0 49.66 33.84"><defs><style>.cls-1{fill:#324858;}.cls-2{fill:#fff;stroke:#324858;stroke-miterlimit:10;}</style></defs><title>Recurso 14</title><g id="Capa_2" data-name="Capa 2"><g id="Capa_1-2" data-name="Capa 1"><path class="cls-1" d="M18,.28h.1a2.48,2.48,0,0,1,0,5c-4.24.4-6.65.17-1.61,1.06,5.3,1,10.92-.75,15.1-2.61A18.17,18.17,0,0,1,42.74,2.41l.47.11c5.27,1.36,6.54,5,6.44,8.78a3.35,3.35,0,0,1-1.89,3L20.93,18.18,7.19,14.09,1.14,10.22C2-.35,9.3-.5,18,.28Z"/><path class="cls-1" d="M.56,20.49s-2.51,9,3.09,11.17C17.84,37.22,44,30.41,44,30.41a7.2,7.2,0,0,0,4.29-6c.41-3.43-1.08-4.15-1.08-4.15l-3.37,1.44-7.79,2.7-6.83,1.1-6.4.39-6.45,0L11.91,25,6.18,23.88l-3.8-.95Z"/><path class="cls-2" d="M39.32,22.62a7.75,7.75,0,0,0,3.8,1.44c1.91,0,4.36-1,4.09-4.21-.17-2.11-.55-2.35-1.39-3.07"/><path class="cls-2" d="M2.64,16.63c-1.39.57-2.48,3.77-2,5.49.37,1.41,1.6,3.78,3.64,1.06"/><path class="cls-2" d="M32.76,24.18a5,5,0,0,0,3.18,1.27c1.68-.09,3.86-1.27,3.4-4.46a4,4,0,0,0-.93-2.5"/><path class="cls-2" d="M31.4,20C33,21.09,33.74,26.08,30,26.8s-4.17-2.38-4.17-2.38"/><path class="cls-2" d="M25.58,21.34c1.16,1.85-.52,7.73-3.09,6.52-1.78-.85-2.82-1.74-2.73-5.09"/><path class="cls-2" d="M4.49,18.91c-.57,4.25,0,6.78,1.57,6.91,1.42.12,3-1,3.63-5.73"/><path class="cls-2" d="M14.49,23.28c-.07,1.23-.89,3.77-3.19,3.59-1.53-.12-2.55-2.35-1.53-7.15"/><path class="cls-2" d="M19.45,21.14c1,1.33-.27,6.63-3,6.37-1.78-.16-2.21-2.49-1.92-6"/><path class="cls-2" d="M5.22,11.79c.08-1-2-4.77-3.75-2.14-1.95,2.94-.55,7,2.2,7.29"/><path class="cls-2" d="M38.63,17.9c.93,1.05,2.81-.35,5-.81s4.5-.45,3.88-3.58-5.29-3.26-5.29-3.26a5.26,5.26,0,0,0-4.86,3.42"/><path class="cls-2" d="M10.63,14.1c.29-3.77-3.78-6.17-6-1.16-1.17,2.59-.94,4.44-.55,5.32.81,1.82,3.75,1.84,5.87,1.21"/><path class="cls-2" d="M30.1,15.17s1.33-2.59,3.66-2.62,4.16.85,4.71,3.15,0,3.53-1.26,3.46a6.29,6.29,0,0,0-3.83.75c-1.47.83-3.37-.6-3.37-.6"/><path class="cls-2" d="M24.1,15.45s1.06-2.73,3.33-2.77,2.75,2.57,2.89,3.55c.25,1.85-.42,5.75-3.43,5.54a3.75,3.75,0,0,1-2.84-2.22"/><path class="cls-2" d="M17.93,16.46s.47-3.53,3.43-3.41,3.34,3.67,2.69,6.5-6.1,1.84-6.51.3"/><path class="cls-2" d="M17.35,20.28C16,22.11,10.13,21,10,19.17c.15-3.84.69-8.23,4.49-8C18.88,11.52,18.13,19.23,17.35,20.28Z"/></g></g></svg>