<svg xmlns="http://www.w3.org/2000/svg" viewBox="0 0 53.11 39.15"><defs><style>.cls-1{fill:#324858;}.cls-2{fill:#fff;}.cls-2,.cls-3{stroke:#324858;stroke-linecap:round;stroke-linejoin:round;}.cls-3{fill:none;stroke-width:0.5px;}</style></defs><title>Recurso 11</title><g id="Capa_2" data-name="Capa 2"><g id="Capa_1-2" data-name="Capa 1"><path class="cls-1" d="M7.81,8.36C3.41,13.37,0,20.75,0,31.6a7.74,7.74,0,0,0,7.49,7.54c4.53.21,8.27-3.15,8.27-7.33a23.46,23.46,0,0,1,3.12-12.53,9.14,9.14,0,0,1,15.35,0,23.47,23.47,0,0,1,3.12,12.38,7.89,7.89,0,0,0,15.76.14c0-11.57-3.74-19.21-8.41-24.23C35-2.92,17.24-2.38,7.81,8.36Z"/><path class="cls-2" d="M24.89,11.63c1.52-.38,1.8-4,1.28-5.89-.57-2.09-6.32-.4-5.81,1.55C20.75,8.77,23.14,12.07,24.89,11.63Z"/><path class="cls-2" d="M19.48,13.26c1.07-.61.52-3.74-.29-5.27s-4.89.86-4.09,2.43C15.71,11.61,18.24,14,19.48,13.26Z"/><path class="cls-2" d="M16.39,16.62c.79-1.22-.82-3.91-2.48-5.07-.93-.65-1.91.62-3,1.24s-.73,3,.1,3.56C12.26,17.26,15.47,18,16.39,16.62Z"/><path class="cls-2" d="M13.84,22.6c.76-2-1-4.68-2.83-5.5s-3.18.47-4.11,1.35c-1.18,1.12.35,4.32,1.23,4.83C9.49,24.07,13.25,24.17,13.84,22.6Z"/><path class="cls-2" d="M9.35,23.84a16.54,16.54,0,0,0-2.88-.43c-.78,0-3.22,1.31-3.12,3.66a16.79,16.79,0,0,0,.52,3.74,4.28,4.28,0,0,0,3.55,2.67H7.5a5.15,5.15,0,0,0,4.81-2.76,3.9,3.9,0,0,0,.27-.65l.13-.4a4.76,4.76,0,0,0,.19-2.12,2.28,2.28,0,0,0-.28-.88C12.18,26,10.51,24.07,9.35,23.84Z"/><path class="cls-2" d="M29.13,11.63c-1.51-.38-1.8-4-1.28-5.89.58-2.09,6.32-.4,5.81,1.55C33.27,8.77,30.88,12.07,29.13,11.63Z"/><path class="cls-2" d="M34.55,13.26c-1.08-.61-.52-3.74.28-5.27s4.9.86,4.09,2.43C38.31,11.61,35.78,14,34.55,13.26Z"/><path class="cls-2" d="M37.64,16.62c-.79-1.22.82-3.91,2.47-5.07.93-.65,1.91.62,3,1.24s.73,3-.1,3.56C41.77,17.26,38.55,18,37.64,16.62Z"/><path class="cls-2" d="M40.18,22.6c-.76-2,1-4.68,2.83-5.5s3.18.47,4.11,1.35c1.19,1.12-.35,4.32-1.23,4.83C44.53,24.07,40.77,24.17,40.18,22.6Z"/><path class="cls-2" d="M44.67,23.84a16.54,16.54,0,0,1,2.88-.43c.78,0,3.22,1.31,3.12,3.66a16.09,16.09,0,0,1-.52,3.74,4.28,4.28,0,0,1-3.55,2.67h-.08a5.16,5.16,0,0,1-4.81-2.76,3.9,3.9,0,0,1-.27-.65l-.13-.4a4.91,4.91,0,0,1-.19-2.12,2.28,2.28,0,0,1,.28-.88C41.84,26,43.51,24.07,44.67,23.84Z"/><path class="cls-3" d="M8.41,25.11a3.24,3.24,0,0,1-3.24,2.28"/><path class="cls-3" d="M7.5,31.64a3.25,3.25,0,0,1,3.24-2.29"/><path class="cls-3" d="M5.17,30.16s3.55-3.06,5.57-2.42"/><path class="cls-3" d="M8.68,20.91s1.89-1.63,3-1.29"/><path class="cls-3" d="M45.64,25.11a3.24,3.24,0,0,0,3.24,2.28"/><path class="cls-3" d="M46.55,31.64a3.25,3.25,0,0,0-3.24-2.29"/><path class="cls-3" d="M48.88,30.16s-3.55-3.06-5.57-2.42"/><path class="cls-3" d="M45.38,20.91s-1.9-1.63-3-1.29"/></g></g></svg>