<svg xmlns="http://www.w3.org/2000/svg" width="44.656" height="29.942" viewBox="0 0 44.656 29.942">
  <g id="Grupo_1532" data-name="Grupo 1532" transform="translate(0.5 0)">
    <path id="Trazado_2450" data-name="Trazado 2450" d="M277.571,438.638c1.208,16.111-15.241,12.517-20.959,12.455h-.4c-5.719.063-21.352,3.843-20.959-12.455l6.13,2.7h30.038Z" transform="translate(-234.608 -421.574)" fill="#324858"/>
    <path id="Trazado_2451" data-name="Trazado 2451" d="M277.569,426.354c.7-10.864-15.241-6.858-20.959-6.8a.71.71,0,0,1-.4,0c-5.718-.063-21.664-4.068-20.959,6.8l1.846,2.628h38.666Z" transform="translate(-234.605 -418.786)" fill="#324858"/>
    <path id="Trazado_2452" data-name="Trazado 2452" d="M259.871,439.605" transform="translate(-238.065 -421.709)" fill="#fff" stroke="#324858" stroke-linecap="round" stroke-linejoin="round" stroke-width="1"/>
    <path id="Trazado_2453" data-name="Trazado 2453" d="M236.314,427.643s-1.839-.591-1.811,2.189c.027,2.727,1.811,2.163,1.811,2.163" transform="translate(-234.503 -420.022)" fill="#fff" stroke="#324858" stroke-linecap="round" stroke-linejoin="round" stroke-width="1"/>
    <path id="Trazado_2454" data-name="Trazado 2454" d="M236.639,439.739s-1.381,0-1.381-1.96c0-1.608.522-2.284,1.64-2.644a1.848,1.848,0,0,1,2.052.765" transform="translate(-234.609 -421.072)" fill="#fff" stroke="#324858" stroke-linecap="round" stroke-linejoin="round" stroke-width="1"/>
    <path id="Trazado_2455" data-name="Trazado 2455" d="M236.87,439.645" transform="translate(-234.835 -421.715)" fill="#fff" stroke="#324858" stroke-linecap="round" stroke-linejoin="round" stroke-width="1"/>
    <path id="Trazado_2456" data-name="Trazado 2456" d="M238.347,441.209s-1.579.272-1.478-2.069,1.279-2.921,2.086-3.06a1.544,1.544,0,0,1,1.767.864" transform="translate(-234.834 -421.21)" fill="#fff" stroke="#324858" stroke-linecap="round" stroke-linejoin="round" stroke-width="1"/>
    <path id="Trazado_2457" data-name="Trazado 2457" d="M240.312,443.082s-2.021.274-1.829-3.662a2.106,2.106,0,0,1,.819-1.57l.242-.184a2.07,2.07,0,0,1,2.948.427c.048.069.072.111.072.111" transform="translate(-235.06 -421.377)" fill="#fff" stroke="#324858" stroke-linecap="round" stroke-linejoin="round" stroke-width="1"/>
    <path id="Trazado_2458" data-name="Trazado 2458" d="M244.624,439.431a2.18,2.18,0,0,0-3.014-.787c-2.126.936-1.147,6.674.279,6.384a2.75,2.75,0,0,0,1.98-1.373" transform="translate(-235.328 -421.535)" fill="#fff" stroke="#324858" stroke-linecap="round" stroke-linejoin="round" stroke-width="1"/>
    <path id="Trazado_2459" data-name="Trazado 2459" d="M248.6,440.714s-1.75-2.629-3.573-1.055c-1.612,1.391-.363,8.519,1.821,7.311a3.775,3.775,0,0,0,2.006-2.366" transform="translate(-235.878 -421.646)" fill="#fff" stroke="#324858" stroke-linecap="round" stroke-linejoin="round" stroke-width="1"/>
    <path id="Trazado_2460" data-name="Trazado 2460" d="M253.778,441.432a.89.89,0,0,0-.609-1,10.365,10.365,0,0,0-3.335-.019c-.438.064-.64.5-.64.978,0,3.123.608,4.392,1.192,5.242a1.661,1.661,0,0,0,2.623.153,5.285,5.285,0,0,0,.956-2.679" transform="translate(-236.565 -421.806)" fill="#fff" stroke="#324858" stroke-linecap="round" stroke-linejoin="round" stroke-width="1"/>
    <path id="Trazado_2461" data-name="Trazado 2461" d="M255.168,440.417c-.438.064-.64.5-.64.978,0,3.123.61,4.758,1.195,5.608a1.285,1.285,0,0,0,2.119,0c.573-.847,1.183-2.47,1.271-5.569a.889.889,0,0,0-.609-1A10.365,10.365,0,0,0,255.168,440.417Z" transform="translate(-237.314 -421.806)" fill="#fff" stroke="#324858" stroke-linecap="round" stroke-linejoin="round" stroke-width="1"/>
    <path id="Trazado_2462" data-name="Trazado 2462" d="M238.413,427.517s-1.7-.873-1.986.4-.337,4.4.8,4.852a1.693,1.693,0,0,0,1.19-.046" transform="translate(-234.748 -419.971)" fill="#fff" stroke="#324858" stroke-linecap="round" stroke-linejoin="round" stroke-width="1"/>
    <path id="Trazado_2463" data-name="Trazado 2463" d="M241,427.266s-1.515-1.049-2.194,0-.652,5.523.373,6.068c.606.321,1.665-.418,1.665-.418" transform="translate(-235.042 -419.911)" fill="#fff" stroke="#324858" stroke-linecap="round" stroke-linejoin="round" stroke-width="1"/>
    <path id="Trazado_2464" data-name="Trazado 2464" d="M244.9,428.4a3.076,3.076,0,0,0-1.759-1.821,1.562,1.562,0,0,0-2.035,1.221,9.593,9.593,0,0,0,.593,6.287c.911,1.565,2.868-.3,2.868-.3" transform="translate(-235.393 -419.87)" fill="#fff" stroke="#324858" stroke-linecap="round" stroke-linejoin="round" stroke-width="1"/>
    <path id="Trazado_2465" data-name="Trazado 2465" d="M250.478,429.3c-.791-2.662-2.809-3.909-4.072-2.756-1.235,1.129-1.466,4.893-1.289,6.611a2.267,2.267,0,0,0,.935,1.505c1.211,1.01,3.83.045,3.83.045" transform="translate(-235.986 -419.816)" fill="#fff" stroke="#324858" stroke-linecap="round" stroke-linejoin="round" stroke-width="1"/>
    <path id="Trazado_2466" data-name="Trazado 2466" d="M254.605,436.305a8.075,8.075,0,0,0,2.916-.518,1.83,1.83,0,0,0,1.08-1.686c-.027-9.052-3.846-8.733-3.846-8.733s-3.81-.424-4.084,8.624a1.828,1.828,0,0,0,1.033,1.714,8.069,8.069,0,0,0,2.9.6" transform="translate(-236.773 -419.71)" fill="#fff" stroke="#324858" stroke-linecap="round" stroke-linejoin="round" stroke-width="1"/>
    <path id="Trazado_2467" data-name="Trazado 2467" d="M283.182,427.643s1.839-.591,1.811,2.189c-.027,2.727-1.811,2.163-1.811,2.163" transform="translate(-241.338 -420.022)" fill="#fff" stroke="#324858" stroke-linecap="round" stroke-linejoin="round" stroke-width="1"/>
    <path id="Trazado_2468" data-name="Trazado 2468" d="M282.55,439.739s1.381,0,1.381-1.96c0-1.608-.522-2.284-1.64-2.644a1.848,1.848,0,0,0-2.052.765" transform="translate(-240.924 -421.072)" fill="#fff" stroke="#324858" stroke-linecap="round" stroke-linejoin="round" stroke-width="1"/>
    <path id="Trazado_2469" data-name="Trazado 2469" d="M282.922,439.645" transform="translate(-241.301 -421.715)" fill="#fff" stroke="#324858" stroke-linecap="round" stroke-linejoin="round" stroke-width="1"/>
    <path id="Trazado_2470" data-name="Trazado 2470" d="M280.815,441.209s1.579.272,1.478-2.069-1.279-2.921-2.085-3.06a1.544,1.544,0,0,0-1.768.864" transform="translate(-240.672 -421.21)" fill="#fff" stroke="#324858" stroke-linecap="round" stroke-linejoin="round" stroke-width="1"/>
    <path id="Trazado_2471" data-name="Trazado 2471" d="M278.811,443.082s2.021.274,1.829-3.662a2.106,2.106,0,0,0-.819-1.57l-.242-.184a2.07,2.07,0,0,0-2.948.427c-.048.069-.072.111-.072.111" transform="translate(-240.408 -421.377)" fill="#fff" stroke="#324858" stroke-linecap="round" stroke-linejoin="round" stroke-width="1"/>
    <path id="Trazado_2472" data-name="Trazado 2472" d="M274.474,439.431a2.18,2.18,0,0,1,3.014-.787c2.126.936,1.147,6.674-.279,6.384a2.75,2.75,0,0,1-1.98-1.373" transform="translate(-240.115 -421.535)" fill="#fff" stroke="#324858" stroke-linecap="round" stroke-linejoin="round" stroke-width="1"/>
    <path id="Trazado_2473" data-name="Trazado 2473" d="M270.446,440.714s1.75-2.629,3.573-1.055c1.612,1.391.363,8.519-1.821,7.311a3.775,3.775,0,0,1-2.006-2.366" transform="translate(-239.514 -421.646)" fill="#fff" stroke="#324858" stroke-linecap="round" stroke-linejoin="round" stroke-width="1"/>
    <path id="Trazado_2474" data-name="Trazado 2474" d="M265.235,441.432a.89.89,0,0,1,.609-1,10.365,10.365,0,0,1,3.335-.019c.438.064.64.5.64.978,0,3.123-.608,4.392-1.192,5.242a1.661,1.661,0,0,1-2.623.153,5.284,5.284,0,0,1-.956-2.679" transform="translate(-238.792 -421.806)" fill="#fff" stroke="#324858" stroke-linecap="round" stroke-linejoin="round" stroke-width="1"/>
    <path id="Trazado_2475" data-name="Trazado 2475" d="M263.876,440.417c.438.064.64.5.64.978,0,3.123-.61,4.758-1.195,5.608a1.285,1.285,0,0,1-2.119,0c-.572-.847-1.183-2.47-1.27-5.569a.89.89,0,0,1,.609-1A10.365,10.365,0,0,1,263.876,440.417Z" transform="translate(-238.073 -421.806)" fill="#fff" stroke="#324858" stroke-linecap="round" stroke-linejoin="round" stroke-width="1"/>
    <path id="Trazado_2476" data-name="Trazado 2476" d="M281.026,427.517s1.7-.873,1.986.4.337,4.4-.8,4.852a1.693,1.693,0,0,1-1.19-.046" transform="translate(-241.035 -419.971)" fill="#fff" stroke="#324858" stroke-linecap="round" stroke-linejoin="round" stroke-width="1"/>
    <path id="Trazado_2477" data-name="Trazado 2477" d="M278.358,427.266s1.515-1.049,2.194,0,.652,5.523-.373,6.068c-.606.321-1.665-.418-1.665-.418" transform="translate(-240.66 -419.911)" fill="#fff" stroke="#324858" stroke-linecap="round" stroke-linejoin="round" stroke-width="1"/>
    <path id="Trazado_2478" data-name="Trazado 2478" d="M274.228,428.4a3.076,3.076,0,0,1,1.759-1.821,1.562,1.562,0,0,1,2.035,1.221,9.594,9.594,0,0,1-.593,6.287c-.911,1.565-2.868-.3-2.868-.3" transform="translate(-240.08 -419.87)" fill="#fff" stroke="#324858" stroke-linecap="round" stroke-linejoin="round" stroke-width="1"/>
    <path id="Trazado_2479" data-name="Trazado 2479" d="M268.43,429.3c.791-2.662,2.809-3.909,4.072-2.756,1.235,1.129,1.466,4.893,1.289,6.611a2.267,2.267,0,0,1-.935,1.505c-1.211,1.01-3.83.045-3.83.045" transform="translate(-239.266 -419.816)" fill="#fff" stroke="#324858" stroke-linecap="round" stroke-linejoin="round" stroke-width="1"/>
    <path id="Trazado_2480" data-name="Trazado 2480" d="M263.892,436.305a8.079,8.079,0,0,1-2.917-.518,1.83,1.83,0,0,1-1.08-1.686c.027-9.052,3.846-8.733,3.846-8.733s3.81-.424,4.084,8.624a1.829,1.829,0,0,1-1.033,1.714,8.066,8.066,0,0,1-2.9.6" transform="translate(-238.068 -419.71)" fill="#fff" stroke="#324858" stroke-linecap="round" stroke-linejoin="round" stroke-width="1"/>
  </g>
</svg>
