<svg xmlns="http://www.w3.org/2000/svg" width="24" height="24" viewBox="0 0 24 24">
  <g id="Group_1605" data-name="Group 1605" transform="translate(-679 -626)" opacity="0.3">
    <g id="baseline-remove_red_eye-24px" transform="translate(679 626)">
      <path id="Path_2645" data-name="Path 2645" d="M0,0H24V24H0Z" fill="none"/>
      <path id="Path_2646" data-name="Path 2646" d="M12,4.5A11.827,11.827,0,0,0,1,12a11.817,11.817,0,0,0,22,0A11.827,11.827,0,0,0,12,4.5ZM12,17a5,5,0,1,1,5-5A5,5,0,0,1,12,17Zm0-8a3,3,0,1,0,3,3A3,3,0,0,0,12,9Z" fill="#037cdb"/>
    </g>
    <line id="Line_286" data-name="Line 286" y1="21" x2="13" transform="translate(684.5 627.5)" fill="none" stroke="#037cdb" stroke-linecap="round" stroke-width="2"/>
  </g>
</svg>
