<svg xmlns="http://www.w3.org/2000/svg" width="42.755" height="29.09" viewBox="0 0 42.755 29.09">
  <g id="Grupo_1533" data-name="Grupo 1533" transform="translate(0 0)">
    <path id="Trazado_2481" data-name="Trazado 2481" d="M173.093,348.387l-.089.008a2.137,2.137,0,0,0-.011,4.258c3.646.342,5.719.139,1.39.912-4.562.815-9.392-.65-12.981-2.246a15.587,15.587,0,0,0-9.554-1.1q-.217.046-.4.094c-4.529,1.172-5.62,4.277-5.535,7.546a2.869,2.869,0,0,0,1.627,2.581l23.061,3.339,11.812-3.517,5.2-3.328C186.9,347.845,180.6,347.714,173.093,348.387Z" transform="translate(-145.907 -348.145)" fill="#037cdb" opacity="0.3"/>
    <path id="Trazado_2482" data-name="Trazado 2482" d="M188.284,368.608s2.163,7.71-2.648,9.595c-12.2,4.781-34.706-1.069-34.706-1.069a6.183,6.183,0,0,1-3.689-5.141c-.348-2.945.927-3.569.927-3.569l2.9,1.237,6.69,2.327,5.873.946,5.5.334,5.546-.028,3.848-.793,4.932-.931,3.26-.811Z" transform="translate(-146.086 -350.992)" fill="#037cdb" opacity="0.3"/>
    <path id="Trazado_2483" data-name="Trazado 2483" d="M155.129,369.943a6.67,6.67,0,0,1-3.268,1.242c-1.634.027-3.74-.836-3.511-3.618.15-1.814.471-2.025,1.193-2.647" transform="translate(-146.247 -350.5)" fill="#fff" stroke="#324858" stroke-miterlimit="10" stroke-width="1"/>
    <path id="Trazado_2484" data-name="Trazado 2484" d="M192.7,364.77c1.194.5,2.125,3.247,1.736,4.721-.321,1.212-1.381,3.249-3.137.912" transform="translate(-152.28 -350.479)" fill="#fff" stroke="#324858" stroke-miterlimit="10" stroke-width="1"/>
    <path id="Trazado_2485" data-name="Trazado 2485" d="M161.871,371.524a4.331,4.331,0,0,1-2.734,1.1,3.059,3.059,0,0,1-2.925-3.839,3.446,3.446,0,0,1,.8-2.142" transform="translate(-147.346 -350.741)" fill="#fff" stroke="#324858" stroke-miterlimit="10" stroke-width="1"/>
    <path id="Trazado_2486" data-name="Trazado 2486" d="M163.981,368.157c-1.376.922-2.015,5.219,1.238,5.832s3.578-2.04,3.578-2.04" transform="translate(-148.287 -350.954)" fill="#fff" stroke="#324858" stroke-miterlimit="10" stroke-width="1"/>
    <path id="Trazado_2487" data-name="Trazado 2487" d="M169.928,369.487c-1,1.592.45,6.64,2.654,5.6,1.533-.725,2.43-1.494,2.348-4.368" transform="translate(-149.234 -351.141)" fill="#fff" stroke="#324858" stroke-miterlimit="10" stroke-width="1"/>
    <path id="Trazado_2488" data-name="Trazado 2488" d="M190.344,367.053c.484,3.651.013,5.826-1.349,5.941-1.224.1-2.584-.872-3.127-4.929" transform="translate(-151.518 -350.799)" fill="#fff" stroke="#324858" stroke-miterlimit="10" stroke-width="1"/>
    <path id="Trazado_2489" data-name="Trazado 2489" d="M181.075,370.927c.057,1.056.762,3.235,2.741,3.08,1.313-.1,2.195-2.019,1.313-6.145" transform="translate(-150.845 -350.913)" fill="#fff" stroke="#324858" stroke-miterlimit="10" stroke-width="1"/>
    <path id="Trazado_2490" data-name="Trazado 2490" d="M176.067,369.286c-.847,1.146.233,5.7,2.543,5.478,1.531-.144,1.9-2.146,1.648-5.195" transform="translate(-150.101 -351.113)" fill="#fff" stroke="#324858" stroke-miterlimit="10" stroke-width="1"/>
    <g id="Grupo_1520" data-name="Grupo 1520" transform="translate(1.776 7.508)">
      <path id="Trazado_2491" data-name="Trazado 2491" d="M190.341,359.506c-.069-.874,1.738-4.1,3.229-1.839,1.67,2.53.47,6.013-1.9,6.263" transform="translate(-153.921 -356.879)" fill="#fff" stroke="#324858" stroke-miterlimit="10" stroke-width="1"/>
      <path id="Trazado_2492" data-name="Trazado 2492" d="M155.672,364.967c-.8.9-2.41-.3-4.279-.7s-3.872-.382-3.331-3.076,4.54-2.8,4.54-2.8a4.527,4.527,0,0,1,4.18,2.942" transform="translate(-147.973 -357.092)" fill="#fff" stroke="#324858" stroke-miterlimit="10" stroke-width="1"/>
      <path id="Trazado_2493" data-name="Trazado 2493" d="M184.933,361.681c-.254-3.239,3.246-5.3,5.189-1,1.01,2.234.808,3.824.473,4.577-.7,1.562-3.218,1.582-5.042,1.037" transform="translate(-153.16 -357.071)" fill="#fff" stroke="#324858" stroke-miterlimit="10" stroke-width="1"/>
      <path id="Trazado_2494" data-name="Trazado 2494" d="M164.258,362.945s-1.142-2.227-3.148-2.25-3.577.726-4.048,2.71c-.45,1.9.008,3.027,1.089,2.972a5.323,5.323,0,0,1,3.287.647c1.266.712,2.9-.518,2.9-.518" transform="translate(-149.225 -357.415)" fill="#fff" stroke="#324858" stroke-miterlimit="10" stroke-width="1"/>
      <path id="Trazado_2495" data-name="Trazado 2495" d="M170.58,363.2s-.912-2.348-2.857-2.384-2.367,2.21-2.485,3.058c-.22,1.587.355,4.943,2.945,4.763a3.247,3.247,0,0,0,2.446-1.91" transform="translate(-150.391 -357.433)" fill="#fff" stroke="#324858" stroke-miterlimit="10" stroke-width="1"/>
      <path id="Trazado_2496" data-name="Trazado 2496" d="M176.731,364.122s-.4-3.027-2.942-2.927-2.879,3.153-2.311,5.589,5.235,1.58,5.6.26" transform="translate(-151.24 -357.485)" fill="#fff" stroke="#324858" stroke-miterlimit="10" stroke-width="1"/>
      <path id="Trazado_2497" data-name="Trazado 2497" d="M178.13,367.145c1.179,1.58,6.209.6,6.355-.95-.133-3.3-.593-7.072-3.865-6.845C176.813,359.615,177.459,366.246,178.13,367.145Z" transform="translate(-152.135 -357.225)" fill="#fff" stroke="#324858" stroke-miterlimit="10" stroke-width="1"/>
    </g>
    <path id="Trazado_2498" data-name="Trazado 2498" d="M148.329,368.423" transform="translate(-146.247 -350.992)" fill="#037cdb"/>
  </g>
</svg>
