<svg xmlns="http://www.w3.org/2000/svg" width="42.754" height="29.09" viewBox="0 0 42.754 29.09">
  <g id="Grupo_1535" data-name="Grupo 1535" transform="translate(0.071 0)">
    <path id="Trazado_2518" data-name="Trazado 2518" d="M335.824,348.387l.089.008a2.137,2.137,0,0,1,.012,4.258c-3.646.342-5.72.139-1.391.912,4.562.815,9.393-.65,12.981-2.246a15.587,15.587,0,0,1,9.554-1.1q.218.046.4.094c4.529,1.172,5.62,4.277,5.535,7.546a2.868,2.868,0,0,1-1.627,2.581l-23.06,3.339-11.813-3.517-5.2-3.328C322.019,347.845,328.321,347.714,335.824,348.387Z" transform="translate(-320.327 -348.145)" fill="#037cdb" opacity="0.3"/>
    <path id="Trazado_2519" data-name="Trazado 2519" d="M320.652,368.608s-2.163,7.71,2.648,9.595c12.2,4.781,34.707-1.069,34.707-1.069a6.181,6.181,0,0,0,3.688-5.141c.348-2.945-.926-3.569-.926-3.569l-2.9,1.237-6.689,2.327-5.874.946-5.5.334-5.546-.028-3.847-.793-4.931-.931-3.26-.811Z" transform="translate(-320.167 -350.992)" fill="#037cdb" opacity="0.3"/>
    <path id="Trazado_2520" data-name="Trazado 2520" d="M359.49,369.943a6.67,6.67,0,0,0,3.268,1.242c1.635.027,3.741-.836,3.511-3.618-.15-1.814-.471-2.025-1.193-2.647" transform="translate(-325.688 -350.5)" fill="#fff" stroke="#324858" stroke-miterlimit="10" stroke-width="1"/>
    <path id="Trazado_2521" data-name="Trazado 2521" d="M322.5,364.77c-1.194.5-2.125,3.247-1.735,4.721.321,1.212,1.381,3.249,3.136.912" transform="translate(-320.239 -350.479)" fill="#fff" stroke="#324858" stroke-miterlimit="10" stroke-width="1"/>
    <path id="Trazado_2522" data-name="Trazado 2522" d="M352.925,371.524a4.331,4.331,0,0,0,2.734,1.1,3.058,3.058,0,0,0,2.925-3.839,3.446,3.446,0,0,0-.8-2.142" transform="translate(-324.766 -350.741)" fill="#fff" stroke="#324858" stroke-miterlimit="10" stroke-width="1"/>
    <path id="Trazado_2523" data-name="Trazado 2523" d="M350.777,368.157c1.376.922,2.015,5.219-1.238,5.832s-3.578-2.04-3.578-2.04" transform="translate(-323.789 -350.954)" fill="#fff" stroke="#324858" stroke-miterlimit="10" stroke-width="1"/>
    <path id="Trazado_2524" data-name="Trazado 2524" d="M344.93,369.487c1,1.592-.45,6.64-2.654,5.6-1.532-.725-2.43-1.494-2.347-4.368" transform="translate(-322.941 -351.141)" fill="#fff" stroke="#324858" stroke-miterlimit="10" stroke-width="1"/>
    <path id="Trazado_2525" data-name="Trazado 2525" d="M324.624,367.053c-.484,3.651-.013,5.826,1.35,5.941,1.223.1,2.583-.872,3.127-4.929" transform="translate(-320.767 -350.799)" fill="#fff" stroke="#324858" stroke-miterlimit="10" stroke-width="1"/>
    <path id="Trazado_2526" data-name="Trazado 2526" d="M333.935,370.927c-.057,1.056-.762,3.235-2.742,3.08-1.313-.1-2.194-2.019-1.313-6.145" transform="translate(-321.481 -350.913)" fill="#fff" stroke="#324858" stroke-miterlimit="10" stroke-width="1"/>
    <path id="Trazado_2527" data-name="Trazado 2527" d="M338.919,369.286c.847,1.146-.233,5.7-2.543,5.478-1.531-.144-1.9-2.146-1.648-5.195" transform="translate(-322.201 -351.113)" fill="#fff" stroke="#324858" stroke-miterlimit="10" stroke-width="1"/>
    <g id="Grupo_1524" data-name="Grupo 1524" transform="translate(0.482 7.508)">
      <path id="Trazado_2528" data-name="Trazado 2528" d="M324.735,359.506c.068-.874-1.739-4.1-3.23-1.839-1.669,2.53-.47,6.013,1.9,6.263" transform="translate(-320.728 -356.879)" fill="#fff" stroke="#324858" stroke-miterlimit="10" stroke-width="1"/>
      <path id="Trazado_2529" data-name="Trazado 2529" d="M358.618,364.967c.8.9,2.41-.3,4.278-.7s3.872-.382,3.332-3.076-4.541-2.8-4.541-2.8a4.528,4.528,0,0,0-4.18,2.942" transform="translate(-325.892 -357.092)" fill="#fff" stroke="#324858" stroke-miterlimit="10" stroke-width="1"/>
      <path id="Trazado_2530" data-name="Trazado 2530" d="M329.825,361.681c.254-3.239-3.246-5.3-5.189-1-1.01,2.234-.807,3.824-.473,4.577.7,1.562,3.219,1.582,5.042,1.037" transform="translate(-321.172 -357.071)" fill="#fff" stroke="#324858" stroke-miterlimit="10" stroke-width="1"/>
      <path id="Trazado_2531" data-name="Trazado 2531" d="M350.256,362.945s1.141-2.227,3.147-2.25,3.577.726,4.048,2.71c.45,1.9-.008,3.027-1.089,2.972a5.323,5.323,0,0,0-3.287.647c-1.266.712-2.9-.518-2.9-.518" transform="translate(-324.862 -357.415)" fill="#fff" stroke="#324858" stroke-miterlimit="10" stroke-width="1"/>
      <path id="Trazado_2532" data-name="Trazado 2532" d="M344.261,363.2s.913-2.348,2.857-2.384,2.367,2.21,2.485,3.058c.221,1.587-.355,4.943-2.945,4.763a3.245,3.245,0,0,1-2.446-1.91" transform="translate(-324.025 -357.433)" fill="#fff" stroke="#324858" stroke-miterlimit="10" stroke-width="1"/>
      <path id="Trazado_2533" data-name="Trazado 2533" d="M338.045,364.122s.4-3.027,2.942-2.927,2.879,3.153,2.312,5.589-5.236,1.58-5.6.26" transform="translate(-323.111 -357.485)" fill="#fff" stroke="#324858" stroke-miterlimit="10" stroke-width="1"/>
      <path id="Trazado_2534" data-name="Trazado 2534" d="M336.477,367.145c-1.179,1.58-6.209.6-6.354-.95.132-3.3.593-7.072,3.864-6.845C337.795,359.615,337.148,366.246,336.477,367.145Z" transform="translate(-322.047 -357.225)" fill="#fff" stroke="#324858" stroke-miterlimit="10" stroke-width="1"/>
    </g>
    <path id="Trazado_2535" data-name="Trazado 2535" d="M367.4,368.423" transform="translate(-326.799 -350.992)" fill="#037cdb"/>
  </g>
</svg>
