<svg xmlns="http://www.w3.org/2000/svg" width="49.637" height="18.991" viewBox="0 0 49.637 18.991">
  <g id="Grupo_1527" data-name="Grupo 1527" transform="translate(0.5 0)">
    <path id="Trazado_2451" data-name="Trazado 2451" d="M282.4,427.217c.785-12.1-16.979-7.64-23.35-7.57a.792.792,0,0,1-.442,0c-6.37-.07-24.135-4.533-23.35,7.57l2.056,2.928h43.078Z" transform="translate(-234.534 -418.786)" fill="#324858"/>
    <path id="Trazado_2453" data-name="Trazado 2453" d="M236.521,427.649s-2.048-.659-2.018,2.438c.03,3.039,2.018,2.409,2.018,2.409" transform="translate(-234.503 -419.159)" fill="#fff" stroke="#324858" stroke-linecap="round" stroke-linejoin="round" stroke-width="1"/>
    <path id="Trazado_2462" data-name="Trazado 2462" d="M238.66,427.551s-1.891-.973-2.212.444-.375,4.9.887,5.4a1.886,1.886,0,0,0,1.325-.051" transform="translate(-234.577 -419.144)" fill="#fff" stroke="#324858" stroke-linecap="round" stroke-linejoin="round" stroke-width="1"/>
    <path id="Trazado_2463" data-name="Trazado 2463" d="M241.3,427.319s-1.688-1.168-2.444,0-.726,6.153.416,6.76c.675.358,1.855-.465,1.855-.465" transform="translate(-234.666 -419.126)" fill="#fff" stroke="#324858" stroke-linecap="round" stroke-linejoin="round" stroke-width="1"/>
    <path id="Trazado_2464" data-name="Trazado 2464" d="M245.364,428.614a3.426,3.426,0,0,0-1.959-2.028,1.74,1.74,0,0,0-2.267,1.36c-.459,1.791-.491,5.025.661,7,1.015,1.744,3.2-.337,3.2-.337" transform="translate(-234.771 -419.113)" fill="#fff" stroke="#324858" stroke-linecap="round" stroke-linejoin="round" stroke-width="1"/>
    <path id="Trazado_2465" data-name="Trazado 2465" d="M251.1,429.667c-.881-2.966-3.13-4.355-4.536-3.07-1.376,1.257-1.634,5.451-1.436,7.365a2.525,2.525,0,0,0,1.042,1.677c1.349,1.125,4.267.05,4.267.05" transform="translate(-234.95 -419.097)" fill="#fff" stroke="#324858" stroke-linecap="round" stroke-linejoin="round" stroke-width="1"/>
    <path id="Trazado_2466" data-name="Trazado 2466" d="M255.054,437.553a9,9,0,0,0,3.248-.577,2.038,2.038,0,0,0,1.2-1.878c-.03-10.084-4.285-9.729-4.285-9.729s-4.244-.472-4.55,9.608a2.037,2.037,0,0,0,1.151,1.91,8.989,8.989,0,0,0,3.232.667" transform="translate(-235.188 -419.065)" fill="#fff" stroke="#324858" stroke-linecap="round" stroke-linejoin="round" stroke-width="1"/>
    <path id="Trazado_2467" data-name="Trazado 2467" d="M283.182,427.649s2.048-.659,2.018,2.438c-.03,3.039-2.018,2.409-2.018,2.409" transform="translate(-236.563 -419.159)" fill="#fff" stroke="#324858" stroke-linecap="round" stroke-linejoin="round" stroke-width="1"/>
    <path id="Trazado_2476" data-name="Trazado 2476" d="M281.026,427.551s1.891-.973,2.212.444.375,4.9-.887,5.4a1.887,1.887,0,0,1-1.325-.051" transform="translate(-236.473 -419.144)" fill="#fff" stroke="#324858" stroke-linecap="round" stroke-linejoin="round" stroke-width="1"/>
    <path id="Trazado_2477" data-name="Trazado 2477" d="M278.358,427.319s1.688-1.168,2.444,0,.726,6.153-.416,6.76c-.675.358-1.855-.465-1.855-.465" transform="translate(-236.359 -419.126)" fill="#fff" stroke="#324858" stroke-linecap="round" stroke-linejoin="round" stroke-width="1"/>
    <path id="Trazado_2478" data-name="Trazado 2478" d="M274.228,428.614a3.426,3.426,0,0,1,1.959-2.028,1.74,1.74,0,0,1,2.267,1.36c.459,1.791.491,5.025-.661,7-1.015,1.744-3.2-.337-3.2-.337" transform="translate(-236.185 -419.113)" fill="#fff" stroke="#324858" stroke-linecap="round" stroke-linejoin="round" stroke-width="1"/>
    <path id="Trazado_2479" data-name="Trazado 2479" d="M268.43,429.667c.881-2.966,3.13-4.355,4.536-3.07,1.376,1.257,1.634,5.451,1.436,7.365a2.526,2.526,0,0,1-1.042,1.677c-1.349,1.125-4.267.05-4.267.05" transform="translate(-235.939 -419.097)" fill="#fff" stroke="#324858" stroke-linecap="round" stroke-linejoin="round" stroke-width="1"/>
    <path id="Trazado_2480" data-name="Trazado 2480" d="M264.348,437.553a9,9,0,0,1-3.249-.577,2.038,2.038,0,0,1-1.2-1.878c.03-10.084,4.285-9.729,4.285-9.729s4.244-.472,4.55,9.608a2.037,2.037,0,0,1-1.151,1.91,8.985,8.985,0,0,1-3.231.667" transform="translate(-235.578 -419.065)" fill="#fff" stroke="#324858" stroke-linecap="round" stroke-linejoin="round" stroke-width="1"/>
  </g>
</svg>
